<?xml version="1.0" encoding="utf-8"?>
<!-- Generator: Adobe Illustrator 15.0.0, SVG Export Plug-In . SVG Version: 6.00 Build 0)  -->
<!DOCTYPE svg PUBLIC "-//W3C//DTD SVG 1.1//EN" "http://www.w3.org/Graphics/SVG/1.1/DTD/svg11.dtd">
<svg version="1.1" id="Calque_1" xmlns="http://www.w3.org/2000/svg" xmlns:xlink="http://www.w3.org/1999/xlink" x="0px" y="0px"
	 width="496.063px" height="221.102px" viewBox="0 0 496.063 221.102" enable-background="new 0 0 496.063 221.102"
	 xml:space="preserve">
<path fill="#7DB928" d="M55.833,45.958h5.353l11.31,26.575h-6.071l-2.413-5.917H52.855l-2.412,5.917h-5.918L55.833,45.958z
	 M61.941,61.489l-3.507-8.558l-3.506,8.558H61.941z"/>
<path fill="#7DB928" d="M73.701,59.416V59.34c0-7.502,5.843-13.647,13.834-13.647c4.75,0,7.615,1.282,10.367,3.619l-3.656,4.411
	c-2.036-1.697-3.846-2.677-6.899-2.677c-4.222,0-7.577,3.732-7.577,8.218v0.076c0,4.825,3.318,8.368,7.992,8.368
	c2.11,0,3.995-0.527,5.464-1.584v-3.769h-5.841v-5.013h11.459v11.459c-2.714,2.299-6.446,4.184-11.271,4.184
	C79.355,72.985,73.701,67.219,73.701,59.416"/>
<polygon fill="#7DB928" points="104.422,46.147 124.325,46.147 124.325,51.311 110.191,51.311 110.191,56.664 122.629,56.664 
	122.629,61.828 110.191,61.828 110.191,67.369 124.515,67.369 124.515,72.533 104.422,72.533 "/>
<polygon fill="#7DB928" points="129.679,46.147 135.032,46.147 147.396,62.393 147.396,46.147 153.125,46.147 153.125,72.533 
	148.188,72.533 135.408,55.759 135.408,72.533 129.679,72.533 "/>
<path fill="#7DB928" d="M158.289,59.416V59.34c0-7.502,5.655-13.647,13.759-13.647c4.975,0,7.954,1.659,10.404,4.072l-3.694,4.259
	c-2.035-1.846-4.11-2.978-6.748-2.978c-4.448,0-7.652,3.694-7.652,8.218v0.076c0,4.523,3.13,8.292,7.652,8.292
	c3.015,0,4.862-1.206,6.936-3.091l3.695,3.731c-2.715,2.904-5.731,4.713-10.819,4.713C164.057,72.985,158.289,66.992,158.289,59.416
	"/>
<polygon fill="#7DB928" points="187.277,46.147 207.179,46.147 207.179,51.311 193.044,51.311 193.044,56.664 205.483,56.664 
	205.483,61.828 193.044,61.828 193.044,67.369 207.369,67.369 207.369,72.533 187.277,72.533 "/>
<polygon fill="#7DB928" points="223.841,46.147 243.934,46.147 243.934,51.424 229.646,51.424 229.646,57.041 242.237,57.041 
	242.237,62.319 229.646,62.319 229.646,72.533 223.841,72.533 "/>
<path fill="#7DB928" d="M248.569,46.147h12.062c3.355,0,5.956,0.941,7.69,2.675c1.47,1.47,2.262,3.544,2.262,6.032v0.075
	c0,4.26-2.3,6.936-5.654,8.179l6.445,9.425h-6.784l-5.655-8.445h-4.561v8.445h-5.805V46.147z M260.254,58.962
	c2.827,0,4.448-1.508,4.448-3.731v-0.076c0-2.488-1.733-3.77-4.562-3.77h-5.767v7.577H260.254z"/>
<path fill="#7DB928" d="M284.869,45.958h5.354l11.308,26.575h-6.069l-2.412-5.917h-11.158l-2.412,5.917h-5.919L284.869,45.958z
	 M290.976,61.489l-3.507-8.558l-3.504,8.558H290.976z"/>
<polygon fill="#7DB928" points="305.602,46.147 310.955,46.147 323.318,62.393 323.318,46.147 329.049,46.147 329.049,72.533 
	324.109,72.533 311.332,55.759 311.332,72.533 305.602,72.533 "/>
<path fill="#7DB928" d="M341.488,77.056l3.016-4.447c-6.07-1.358-10.291-6.711-10.291-13.194v-0.077
	c0-7.5,5.653-13.644,13.759-13.644c4.976,0,7.955,1.659,10.403,4.071l-3.694,4.26c-2.035-1.847-4.109-2.979-6.747-2.979
	c-4.449,0-7.652,3.695-7.652,8.218v0.074c0,4.525,3.129,8.294,7.652,8.294c3.016,0,4.863-1.206,6.936-3.091l3.693,3.732
	c-2.525,2.714-5.353,4.448-9.837,4.675l-2.451,6.106L341.488,77.056z"/>
<path fill="#7DB928" d="M372.246,45.958h5.353l11.308,26.575h-6.066l-2.413-5.917H369.27l-2.413,5.917h-5.919L372.246,45.958z
	 M378.354,61.489l-3.506-8.558l-3.505,8.558H378.354z"/>
<rect x="393.242" y="46.147" fill="#7DB928" width="5.805" height="26.386"/>
<path fill="#7DB928" d="M403.835,68.688l3.431-4.108c2.374,1.96,4.863,3.204,7.879,3.204c2.375,0,3.806-0.943,3.806-2.489V65.22
	c0-1.47-0.904-2.224-5.313-3.354c-5.316-1.358-8.747-2.827-8.747-8.068v-0.075c0-4.787,3.847-7.955,9.235-7.955
	c3.846,0,7.125,1.207,9.802,3.357l-3.016,4.372c-2.337-1.621-4.636-2.6-6.86-2.6c-2.226,0-3.393,1.017-3.393,2.298v0.077
	c0,1.732,1.13,2.298,5.692,3.467c5.352,1.394,8.368,3.317,8.368,7.916v0.076c0,5.238-3.996,8.18-9.688,8.18
	C411.035,72.911,407,71.515,403.835,68.688"/>
<polygon fill="#7DB928" points="429.77,46.147 449.672,46.147 449.672,51.311 435.538,51.311 435.538,56.664 447.976,56.664 
	447.976,61.828 435.538,61.828 435.538,67.369 449.861,67.369 449.861,72.533 429.77,72.533 "/>
<path fill="#7DB928" d="M45.731,99.82h7.187c4.195,0,6.734,2.487,6.734,6.081v0.051c0,4.07-3.167,6.18-7.111,6.18h-2.94v5.276h-3.87
	V99.82z M52.666,108.69c1.935,0,3.065-1.156,3.065-2.664v-0.05c0-1.734-1.206-2.664-3.14-2.664h-2.99v5.378H52.666z"/>
<path fill="#7DB928" d="M61.74,108.666v-0.052c0-5,3.945-9.095,9.372-9.095c5.427,0,9.322,4.045,9.322,9.045v0.05
	c0,5-3.945,9.097-9.372,9.097C65.633,117.71,61.74,113.664,61.74,108.666 M76.388,108.666v-0.052c0-3.013-2.211-5.527-5.326-5.527
	c-3.116,0-5.277,2.462-5.277,5.477v0.05c0,3.016,2.211,5.528,5.327,5.528C74.228,114.142,76.388,111.68,76.388,108.666"/>
<path fill="#7DB928" d="M83.603,109.87V99.82h3.87v9.95c0,2.866,1.432,4.347,3.794,4.347c2.362,0,3.794-1.432,3.794-4.22V99.82
	h3.869v9.925c0,5.327-2.99,7.94-7.714,7.94C86.493,117.685,83.603,115.046,83.603,109.87"/>
<path fill="#7DB928" d="M102.877,99.82h8.041c2.236,0,3.97,0.628,5.126,1.783c0.979,0.982,1.507,2.363,1.507,4.021v0.051
	c0,2.839-1.531,4.624-3.77,5.452l4.298,6.282h-4.522l-3.769-5.629h-3.041v5.629h-3.87V99.82z M110.667,108.363
	c1.885,0,2.965-1.005,2.965-2.487v-0.05c0-1.659-1.156-2.514-3.041-2.514h-3.844v5.051H110.667z"/>
<polygon fill="#7DB928" points="128.585,99.82 132.455,99.82 132.455,113.891 141.224,113.891 141.224,117.409 128.585,117.409 "/>
<path fill="#7DB928" d="M150.171,99.694h3.568l7.538,17.714h-4.046l-1.607-3.945h-7.438l-1.608,3.945h-3.945L150.171,99.694z
	 M154.241,110.046l-2.336-5.703l-2.338,5.703H154.241z"/>
<path fill="#7DB928" d="M174.741,91.022h12.251c3.016,0,5.391,0.829,6.899,2.337c1.207,1.206,1.809,2.677,1.809,4.486v0.076
	c0,2.977-1.583,4.636-3.469,5.691c3.054,1.169,4.939,2.941,4.939,6.484v0.076c0,4.825-3.92,7.237-9.876,7.237h-12.553V91.022z
	 M185.749,101.69c2.563,0,4.185-0.829,4.185-2.789v-0.076c0-1.734-1.359-2.714-3.809-2.714h-5.729v5.579H185.749z M187.294,112.32
	c2.563,0,4.109-0.904,4.109-2.865v-0.075c0-1.772-1.32-2.866-4.297-2.866h-6.71v5.806H187.294z"/>
<rect x="202.221" y="91.022" fill="#7DB928" width="5.805" height="26.387"/>
<path fill="#7DB928" d="M213.454,104.291v-0.075c0-7.502,5.918-13.646,14.061-13.646c8.142,0,13.984,6.07,13.984,13.571v0.075
	c0,7.502-5.917,13.646-14.059,13.646C219.297,117.861,213.454,111.792,213.454,104.291 M235.431,104.291v-0.075
	c0-4.524-3.317-8.293-7.991-8.293c-4.674,0-7.916,3.694-7.916,8.218v0.075c0,4.523,3.317,8.294,7.991,8.294
	C232.189,112.509,235.431,108.813,235.431,104.291"/>
<path fill="#7DB928" d="M246.664,91.022h10.291c8.292,0,14.021,5.691,14.021,13.118v0.075c0,7.426-5.729,13.193-14.021,13.193
	h-10.291V91.022z M256.955,112.169c4.748,0,7.953-3.204,7.953-7.879v-0.075c0-4.674-3.205-7.953-7.953-7.953h-4.486v15.907H256.955z
	"/>
<rect x="276.405" y="91.022" fill="#7DB928" width="5.805" height="26.387"/>
<polygon fill="#7DB928" points="286.546,91.022 292.953,91.022 299.852,109.606 306.75,91.022 313.008,91.022 302.34,117.596 
	297.213,117.596 "/>
<polygon fill="#7DB928" points="317.078,91.022 336.981,91.022 336.981,96.186 322.847,96.186 322.847,101.539 335.286,101.539 
	335.286,106.704 322.847,106.704 322.847,112.245 337.171,112.245 337.171,117.409 317.078,117.409 "/>
<path fill="#7DB928" d="M342.335,91.022h12.063c3.355,0,5.956,0.942,7.689,2.675c1.47,1.471,2.263,3.544,2.263,6.032v0.076
	c0,4.26-2.299,6.935-5.654,8.179l6.445,9.424h-6.785l-5.655-8.443h-4.56v8.443h-5.806V91.022z M354.021,103.838
	c2.828,0,4.448-1.508,4.448-3.732v-0.076c0-2.487-1.734-3.769-4.561-3.769h-5.768v7.577H354.021z"/>
<path fill="#7DB928" d="M367.78,113.564l3.43-4.109c2.374,1.961,4.862,3.204,7.878,3.204c2.375,0,3.808-0.942,3.808-2.488v-0.075
	c0-1.47-0.904-2.224-5.315-3.355c-5.314-1.357-8.745-2.827-8.745-8.067v-0.076c0-4.787,3.845-7.953,9.235-7.953
	c3.845,0,7.124,1.206,9.801,3.355l-3.015,4.374c-2.339-1.622-4.638-2.602-6.86-2.602c-2.225,0-3.394,1.017-3.394,2.298v0.077
	c0,1.734,1.131,2.298,5.691,3.467c5.354,1.395,8.369,3.317,8.369,7.917v0.075c0,5.239-3.995,8.18-9.688,8.18
	C374.98,117.786,370.946,116.39,367.78,113.564"/>
<rect x="393.977" y="91.022" fill="#7DB928" width="5.808" height="26.387"/>
<polygon fill="#7DB928" points="412.523,96.375 404.494,96.375 404.494,91.021 426.358,91.021 426.358,96.375 418.328,96.375 
	418.328,117.409 412.523,117.409 "/>
<path fill="#7DB928" d="M430.805,91.022h19.903v5.164h-14.134v5.353h12.438v5.165h-12.438v5.541h14.323v5.164h-20.093V91.022z
	 M443.057,83.031l4.937,2.148l-5.124,3.769h-4.373L443.057,83.031z"/>
<rect fill="none" width="496.063" height="221.102"/>
<g>
	<defs>
		<rect id="SVGID_1_" x="46.184" y="133.652" width="405.355" height="3.568"/>
	</defs>
	<clipPath id="SVGID_2_">
		<use xlink:href="#SVGID_1_"  overflow="visible"/>
	</clipPath>
	
		<linearGradient id="SVGID_3_" gradientUnits="userSpaceOnUse" x1="-4.882813e-004" y1="221.1021" x2="0.9995" y2="221.1021" gradientTransform="matrix(-405.3545 0 0 405.3545 451.4141 -89489.2188)">
		<stop  offset="0" style="stop-color:#169FDB"/>
		<stop  offset="0.5" style="stop-color:#A2C617"/>
		<stop  offset="1" style="stop-color:#00508C"/>
	</linearGradient>
	<rect x="46.184" y="133.652" clip-path="url(#SVGID_2_)" fill="url(#SVGID_3_)" width="405.355" height="3.568"/>
</g>
<g>
	<defs>
		<rect id="SVGID_4_" width="496.063" height="221.102"/>
	</defs>
	<clipPath id="SVGID_5_">
		<use xlink:href="#SVGID_4_"  overflow="visible"/>
	</clipPath>
	<path clip-path="url(#SVGID_5_)" fill="#706F6F" d="M46.08,175.193v-19.219h8.072v2.727h-5.048v5.452h4.345v2.727h-4.345v5.587
		h5.048v2.727H46.08z M50.967,154.678h-1.998l1.943-3.752h2.403L50.967,154.678z"/>
	<polygon clip-path="url(#SVGID_5_)" fill="#706F6F" points="65.33,158.701 65.33,175.193 62.307,175.193 62.307,158.701 
		59.095,158.701 59.095,155.974 68.569,155.974 68.569,158.701 	"/>
	<path clip-path="url(#SVGID_5_)" fill="#706F6F" d="M80.422,175.193l-0.783-3.806h-4.453l-0.756,3.806h-3.186l4.725-19.219h2.941
		l4.67,19.219H80.422z M77.426,160.617l-1.646,8.044h3.292L77.426,160.617z"/>
	<path clip-path="url(#SVGID_5_)" fill="#706F6F" d="M97.297,173.978c-0.81,0.837-1.998,1.215-3.779,1.215h-4.777v-19.219h4.804
		c1.781,0,2.942,0.378,3.752,1.188c0.863,0.891,1.188,2.159,1.188,4.049c0,1.296-0.135,2.376-0.999,3.239
		c-0.297,0.297-0.62,0.513-0.999,0.675c0.405,0.163,0.755,0.405,1.025,0.703c0.945,1.024,1.026,2.482,1.026,3.67
		C98.538,171.684,98.215,173.034,97.297,173.978 M93.194,158.701h-1.431v5.209h1.431c1.592,0,2.267-0.782,2.267-2.618
		C95.461,159.348,94.813,158.701,93.194,158.701 M93.221,166.474h-1.458v5.992h1.458c1.646,0,2.294-0.756,2.294-2.996
		C95.515,167.338,94.84,166.474,93.221,166.474"/>
	<polygon clip-path="url(#SVGID_5_)" fill="#706F6F" points="104.858,175.193 104.858,155.974 107.88,155.974 107.88,172.466 
		112.929,172.466 112.929,175.193 	"/>
	<rect x="118.574" y="155.974" clip-path="url(#SVGID_5_)" fill="#706F6F" width="3.023" height="19.219"/>
	<path clip-path="url(#SVGID_5_)" fill="#706F6F" d="M136.257,174.113c-0.782,0.756-2.052,1.269-3.752,1.269
		c-1.674,0-2.915-0.458-3.726-1.269c-0.918-0.917-1.241-2.105-1.241-4.13h3.023c0,1.025,0.108,1.674,0.541,2.16
		c0.269,0.297,0.728,0.513,1.403,0.513c0.702,0,1.161-0.189,1.458-0.54c0.404-0.459,0.512-1.107,0.512-2.133
		c0-2.051-0.323-2.564-1.809-3.158l-2.294-0.944c-1.943-0.81-2.672-1.862-2.672-4.832c0-1.728,0.513-3.131,1.566-4.075
		c0.837-0.729,1.916-1.161,3.293-1.161c1.539,0,2.672,0.404,3.455,1.161c0.999,0.972,1.349,2.348,1.349,4.184h-3.023
		c0-0.864-0.054-1.539-0.459-2.052c-0.27-0.351-0.701-0.566-1.35-0.566c-0.621,0-0.998,0.216-1.295,0.54
		c-0.351,0.404-0.513,1.053-0.513,1.888c0,1.567,0.244,2.053,1.594,2.593l2.266,0.918c2.294,0.944,2.915,2.159,2.915,5.398
		C137.498,171.846,137.229,173.168,136.257,174.113"/>
	<path clip-path="url(#SVGID_5_)" fill="#706F6F" d="M151.566,174.113c-0.783,0.756-2.053,1.269-3.752,1.269
		c-1.674,0-2.916-0.458-3.726-1.269c-0.918-0.917-1.241-2.105-1.241-4.13h3.023c0,1.025,0.108,1.674,0.54,2.16
		c0.269,0.297,0.728,0.513,1.404,0.513c0.701,0,1.16-0.189,1.457-0.54c0.404-0.459,0.513-1.107,0.513-2.133
		c0-2.051-0.323-2.564-1.809-3.158l-2.294-0.944c-1.943-0.81-2.672-1.862-2.672-4.832c0-1.728,0.512-3.131,1.565-4.075
		c0.838-0.729,1.917-1.161,3.293-1.161c1.539,0,2.673,0.404,3.455,1.161c1,0.972,1.349,2.348,1.349,4.184h-3.022
		c0-0.864-0.054-1.539-0.459-2.052c-0.27-0.351-0.702-0.566-1.35-0.566c-0.621,0-0.999,0.216-1.295,0.54
		c-0.351,0.404-0.513,1.053-0.513,1.888c0,1.567,0.243,2.053,1.593,2.593l2.267,0.918c2.294,0.944,2.915,2.159,2.915,5.398
		C152.808,171.846,152.538,173.168,151.566,174.113"/>
	<polygon clip-path="url(#SVGID_5_)" fill="#706F6F" points="158.83,175.193 158.83,155.974 166.901,155.974 166.901,158.701 
		161.853,158.701 161.853,164.153 166.199,164.153 166.199,166.879 161.853,166.879 161.853,172.466 166.901,172.466 
		166.901,175.193 	"/>
	<polygon clip-path="url(#SVGID_5_)" fill="#706F6F" points="182.777,175.193 182.777,163.208 180.158,171.09 178.484,171.09 
		175.92,163.343 175.92,175.193 172.897,175.193 172.897,155.974 175.623,155.974 179.348,166.069 183.047,155.974 185.799,155.974 
		185.799,175.193 	"/>
	<polygon clip-path="url(#SVGID_5_)" fill="#706F6F" points="192.418,175.193 192.418,155.974 200.488,155.974 200.488,158.701 
		195.441,158.701 195.441,164.153 199.787,164.153 199.787,166.879 195.441,166.879 195.441,172.466 200.488,172.466 
		200.488,175.193 	"/>
	<polygon clip-path="url(#SVGID_5_)" fill="#706F6F" points="214.043,175.193 209.508,163.775 209.508,175.193 206.484,175.193 
		206.484,155.974 209.184,155.974 213.691,167.392 213.691,155.974 216.715,155.974 216.715,175.193 	"/>
	<polygon clip-path="url(#SVGID_5_)" fill="#706F6F" points="228.516,158.701 228.516,175.193 225.493,175.193 225.493,158.701 
		222.28,158.701 222.28,155.974 231.753,155.974 231.753,158.701 	"/>
	<path clip-path="url(#SVGID_5_)" fill="#706F6F" d="M250.357,167.689h-1.809v7.504h-3.024v-19.219h4.833
		c3.482,0,4.939,1.809,4.939,5.83C255.297,165.692,254.002,167.689,250.357,167.689 M250.412,158.701h-1.863v6.262h1.863
		c1.619,0,1.861-1.431,1.861-3.131S252.031,158.701,250.412,158.701"/>
	<path clip-path="url(#SVGID_5_)" fill="#706F6F" d="M269.607,174.005c-0.918,0.944-2.133,1.403-3.563,1.403
		s-2.671-0.459-3.589-1.403c-0.838-0.864-1.322-2.079-1.322-3.536v-14.495h3.021v14.657c0,1.376,0.865,2.051,1.89,2.051
		c1.026,0,1.862-0.675,1.862-2.051v-14.657h3.023v14.495C270.93,171.926,270.445,173.141,269.607,174.005"/>
	<path clip-path="url(#SVGID_5_)" fill="#706F6F" d="M285.943,173.978c-0.811,0.837-1.998,1.215-3.779,1.215h-4.779v-19.219h4.805
		c1.783,0,2.943,0.378,3.754,1.188c0.863,0.891,1.188,2.159,1.188,4.049c0,1.296-0.137,2.376-1,3.239
		c-0.297,0.297-0.621,0.513-0.998,0.675c0.404,0.163,0.756,0.405,1.025,0.703c0.945,1.024,1.025,2.482,1.025,3.67
		C287.184,171.684,286.859,173.034,285.943,173.978 M281.84,158.701h-1.432v5.209h1.432c1.592,0,2.268-0.782,2.268-2.618
		C284.107,159.348,283.459,158.701,281.84,158.701 M281.867,166.474h-1.459v5.992h1.459c1.646,0,2.293-0.756,2.293-2.996
		C284.16,167.338,283.486,166.474,281.867,166.474"/>
	<polygon clip-path="url(#SVGID_5_)" fill="#706F6F" points="293.504,175.193 293.504,155.974 296.527,155.974 296.527,172.466 
		301.576,172.466 301.576,175.193 	"/>
	<rect x="307.221" y="155.974" clip-path="url(#SVGID_5_)" fill="#706F6F" width="3.023" height="19.219"/>
	<path clip-path="url(#SVGID_5_)" fill="#706F6F" d="M324.795,174.194c-0.863,0.783-1.889,1.215-3.32,1.215
		c-1.836,0-2.914-0.702-3.725-1.619c-1.43-1.62-1.404-4.4-1.404-8.179c0-3.779-0.025-6.613,1.404-8.233
		c0.811-0.918,1.889-1.619,3.725-1.619c1.459,0,2.484,0.432,3.348,1.241c0.945,0.891,1.484,2.349,1.539,4.048h-3.023
		c-0.027-0.7-0.135-1.375-0.459-1.861c-0.27-0.432-0.676-0.702-1.404-0.702s-1.16,0.298-1.43,0.729
		c-0.566,0.917-0.676,2.861-0.676,6.37s0.109,5.452,0.676,6.37c0.27,0.432,0.701,0.729,1.43,0.729s1.162-0.27,1.432-0.701
		c0.324-0.486,0.432-1.188,0.459-1.89h3.023C326.334,171.819,325.768,173.303,324.795,174.194"/>
	<path clip-path="url(#SVGID_5_)" fill="#706F6F" d="M349.121,173.6c-0.783,0.891-1.889,1.593-3.725,1.593h-4.887v-19.219h4.887
		c1.836,0,2.941,0.702,3.725,1.593c1.432,1.592,1.404,4.318,1.404,8.017S350.553,172.007,349.121,173.6 M346.854,159.483
		c-0.297-0.459-0.809-0.782-1.539-0.782h-1.781v13.766h1.781c0.73,0,1.242-0.323,1.539-0.782c0.566-0.89,0.648-2.78,0.648-6.128
		C347.502,162.209,347.42,160.374,346.854,159.483"/>
	<polygon clip-path="url(#SVGID_5_)" fill="#706F6F" points="356.629,175.193 356.629,155.974 364.699,155.974 364.699,158.701 
		359.652,158.701 359.652,164.153 363.998,164.153 363.998,166.879 359.652,166.879 359.652,172.466 364.699,172.466 
		364.699,175.193 	"/>
	<polygon clip-path="url(#SVGID_5_)" fill="#706F6F" points="378.902,175.193 378.902,155.974 381.926,155.974 381.926,172.466 
		386.975,172.466 386.975,175.193 	"/>
	<polygon clip-path="url(#SVGID_5_)" fill="#706F6F" points="390.35,161.481 390.35,155.974 393.453,155.974 393.453,159.159 	"/>
	<path clip-path="url(#SVGID_5_)" fill="#706F6F" d="M399.988,175.193v-19.219h8.072v2.727h-5.049v5.452h4.346v2.727h-4.346v5.587
		h5.049v2.727H399.988z M404.875,154.678h-1.998l1.943-3.752h2.402L404.875,154.678z"/>
	<polygon clip-path="url(#SVGID_5_)" fill="#706F6F" points="419.238,158.701 419.238,175.193 416.215,175.193 416.215,158.701 
		413.002,158.701 413.002,155.974 422.477,155.974 422.477,158.701 	"/>
	<path clip-path="url(#SVGID_5_)" fill="#706F6F" d="M434.33,175.193l-0.783-3.806h-4.453l-0.756,3.806h-3.186l4.725-19.219h2.941
		l4.67,19.219H434.33z M431.334,160.617l-1.646,8.044h3.293L431.334,160.617z"/>
	<polygon clip-path="url(#SVGID_5_)" fill="#706F6F" points="446.67,158.701 446.67,175.193 443.648,175.193 443.648,158.701 
		440.436,158.701 440.436,155.974 449.91,155.974 449.91,158.701 	"/>
</g>
</svg>
